<svg xmlns="http://www.w3.org/2000/svg" height="512pt" version="1.1" viewBox="0 0 512 512.00002" width="512pt">
<g id="surface1">
<path d="M 162.132812 349.867188 L 145.066406 349.867188 L 145.066406 401.066406 L 452.265625 401.066406 L 452.265625 349.867188 Z M 162.132812 349.867188 " style=" stroke:none;fill-rule:nonzero;fill:rgb(86.666667%,69.803922%,0%);fill-opacity:1;" />
<path d="M 162.132812 230.398438 L 162.132812 349.867188 L 332.800781 349.867188 L 332.800781 145.066406 L 247.46875 145.066406 L 185.6875 206.847656 Z M 196.265625 244.539062 L 261.605469 179.199219 L 298.667969 179.199219 L 298.667969 264.53125 L 196.265625 264.53125 Z M 196.265625 244.539062 " style=" stroke:none;fill-rule:nonzero;fill:rgb(100%,80.392157%,0%);fill-opacity:1;" />
<path d="M 298.667969 179.199219 L 261.605469 179.199219 L 196.265625 244.539062 L 196.265625 264.53125 L 298.667969 264.53125 Z M 298.667969 179.199219 " style=" stroke:none;fill-rule:nonzero;fill:rgb(87.843137%,87.843137%,88.627451%);fill-opacity:1;" />
<path d="M 93.867188 452.265625 C 93.867188 480.542969 116.789062 503.464844 145.066406 503.464844 L 452.265625 503.464844 C 480.542969 503.464844 503.464844 480.542969 503.464844 452.265625 C 503.464844 423.988281 480.542969 401.066406 452.265625 401.066406 L 145.066406 401.066406 C 116.789062 401.066406 93.867188 423.988281 93.867188 452.265625 Z M 401.066406 426.667969 C 415.203125 426.667969 426.667969 438.128906 426.667969 452.265625 C 426.667969 466.40625 415.207031 477.867188 401.066406 477.867188 C 386.929688 477.867188 375.464844 466.40625 375.464844 452.265625 C 375.464844 438.128906 386.925781 426.667969 401.066406 426.667969 Z M 298.667969 426.667969 C 312.804688 426.667969 324.265625 438.128906 324.265625 452.265625 C 324.265625 466.40625 312.804688 477.867188 298.667969 477.867188 C 284.527344 477.867188 273.066406 466.40625 273.066406 452.265625 C 273.066406 438.128906 284.527344 426.667969 298.667969 426.667969 Z M 196.265625 426.667969 C 210.40625 426.667969 221.867188 438.128906 221.867188 452.265625 C 221.867188 466.40625 210.40625 477.867188 196.265625 477.867188 C 182.128906 477.867188 170.667969 466.40625 170.667969 452.265625 C 170.667969 438.128906 182.128906 426.667969 196.265625 426.667969 Z M 196.265625 426.667969 " style=" stroke:none;fill-rule:nonzero;fill:rgb(53.72549%,53.333333%,56.470588%);fill-opacity:1;" />
<path d="M 324.265625 452.265625 C 324.265625 466.40625 312.804688 477.867188 298.667969 477.867188 C 284.527344 477.867188 273.066406 466.40625 273.066406 452.265625 C 273.066406 438.128906 284.527344 426.664062 298.667969 426.664062 C 312.804688 426.664062 324.265625 438.128906 324.265625 452.265625 Z M 324.265625 452.265625 " style=" stroke:none;fill-rule:nonzero;fill:rgb(34.117647%,33.72549%,36.078431%);fill-opacity:1;" />
<path d="M 426.667969 452.265625 C 426.667969 466.40625 415.207031 477.867188 401.066406 477.867188 C 386.929688 477.867188 375.464844 466.40625 375.464844 452.265625 C 375.464844 438.128906 386.929688 426.664062 401.066406 426.664062 C 415.207031 426.664062 426.667969 438.128906 426.667969 452.265625 Z M 426.667969 452.265625 " style=" stroke:none;fill-rule:nonzero;fill:rgb(34.117647%,33.72549%,36.078431%);fill-opacity:1;" />
<path d="M 221.867188 452.265625 C 221.867188 466.40625 210.40625 477.867188 196.265625 477.867188 C 182.128906 477.867188 170.667969 466.40625 170.667969 452.265625 C 170.667969 438.128906 182.128906 426.664062 196.265625 426.664062 C 210.40625 426.664062 221.867188 438.128906 221.867188 452.265625 Z M 221.867188 452.265625 " style=" stroke:none;fill-rule:nonzero;fill:rgb(34.117647%,33.72549%,36.078431%);fill-opacity:1;" />
<path d="M 452.265625 349.867188 L 503.464844 349.867188 L 503.464844 264.53125 L 332.800781 264.53125 L 332.800781 349.867188 Z M 452.265625 349.867188 " style=" stroke:none;fill-rule:nonzero;fill:rgb(100%,86.666667%,30.588235%);fill-opacity:1;" />
<path d="M 59.734375 80.894531 L 185.683594 206.847656 L 221.867188 170.667969 L 59.734375 8.53125 L 8.53125 8.53125 L 8.53125 247.464844 L 34.132812 247.464844 Z M 59.734375 80.894531 " style=" stroke:none;fill-rule:nonzero;fill:rgb(92.156863%,74.901961%,0%);fill-opacity:1;" />
<path d="M 110.933594 247.464844 L 8.53125 247.464844 L 8.53125 298.667969 L 85.332031 349.867188 Z M 110.933594 247.464844 " style=" stroke:none;fill-rule:nonzero;fill:rgb(75.294118%,67.058824%,56.862745%);fill-opacity:1;" />
<path d="M 298.667969 170.667969 L 261.605469 170.667969 C 259.34375 170.667969 257.171875 171.566406 255.574219 173.167969 L 190.234375 238.507812 C 188.632812 240.105469 187.734375 242.277344 187.734375 244.539062 L 187.734375 264.53125 C 187.734375 269.246094 191.554688 273.066406 196.265625 273.066406 L 298.667969 273.066406 C 303.378906 273.066406 307.199219 269.246094 307.199219 264.53125 L 307.199219 179.199219 C 307.199219 174.488281 303.378906 170.667969 298.667969 170.667969 Z M 290.132812 256 L 204.800781 256 L 204.800781 248.074219 L 265.140625 187.734375 L 290.132812 187.734375 Z M 290.132812 256 " style=" stroke:none;fill-rule:nonzero;fill:rgb(13.72549%,12.156863%,12.54902%);fill-opacity:1;" />
<path d="M 298.667969 418.132812 C 279.816406 418.132812 264.53125 433.414062 264.53125 452.265625 C 264.53125 471.117188 279.816406 486.398438 298.667969 486.398438 C 317.519531 486.398438 332.800781 471.117188 332.800781 452.265625 C 332.800781 433.414062 317.519531 418.132812 298.667969 418.132812 Z M 298.667969 469.332031 C 289.242188 469.332031 281.597656 461.691406 281.597656 452.265625 C 281.597656 442.839844 289.242188 435.199219 298.667969 435.199219 C 308.09375 435.199219 315.734375 442.839844 315.734375 452.265625 C 315.734375 461.691406 308.09375 469.332031 298.667969 469.332031 Z M 298.667969 469.332031 " style=" stroke:none;fill-rule:nonzero;fill:rgb(13.72549%,12.156863%,12.54902%);fill-opacity:1;" />
<path d="M 401.066406 418.132812 C 382.214844 418.132812 366.933594 433.414062 366.933594 452.265625 C 366.933594 471.117188 382.214844 486.398438 401.066406 486.398438 C 419.917969 486.398438 435.199219 471.117188 435.199219 452.265625 C 435.199219 433.414062 419.917969 418.132812 401.066406 418.132812 Z M 401.066406 469.332031 C 391.640625 469.332031 384 461.691406 384 452.265625 C 384 442.839844 391.640625 435.199219 401.066406 435.199219 C 410.492188 435.199219 418.132812 442.839844 418.132812 452.265625 C 418.132812 461.691406 410.492188 469.332031 401.066406 469.332031 Z M 401.066406 469.332031 " style=" stroke:none;fill-rule:nonzero;fill:rgb(13.72549%,12.156863%,12.54902%);fill-opacity:1;" />
<path d="M 196.265625 418.132812 C 177.414062 418.132812 162.132812 433.414062 162.132812 452.265625 C 162.132812 471.117188 177.414062 486.398438 196.265625 486.398438 C 215.117188 486.398438 230.398438 471.117188 230.398438 452.265625 C 230.398438 433.414062 215.117188 418.132812 196.265625 418.132812 Z M 196.265625 469.332031 C 186.839844 469.332031 179.199219 461.691406 179.199219 452.265625 C 179.199219 442.839844 186.839844 435.199219 196.265625 435.199219 C 205.691406 435.199219 213.332031 442.839844 213.332031 452.265625 C 213.332031 461.691406 205.691406 469.332031 196.265625 469.332031 Z M 196.265625 469.332031 " style=" stroke:none;fill-rule:nonzero;fill:rgb(13.72549%,12.156863%,12.54902%);fill-opacity:1;" />
<path d="M 503.464844 358.398438 C 508.179688 358.398438 512 354.578125 512 349.867188 L 512 264.53125 C 512 259.820312 508.179688 256 503.464844 256 L 341.332031 256 L 341.332031 145.066406 C 341.332031 140.355469 337.511719 136.535156 332.800781 136.535156 L 247.46875 136.535156 C 245.203125 136.535156 243.035156 137.433594 241.433594 139.035156 L 221.867188 158.601562 L 65.765625 2.5 C 64.167969 0.898438 61.996094 0 59.734375 0 L 8.53125 0 C 3.820312 0 0 3.820312 0 8.53125 L 0 298.667969 C 0 301.519531 1.425781 304.183594 3.796875 305.765625 L 80.597656 356.964844 C 84.519531 359.582031 89.816406 358.523438 92.429688 354.601562 C 92.972656 353.789062 93.371094 352.886719 93.609375 351.941406 L 119.210938 249.539062 L 127.742188 215.40625 C 128.855469 210.828125 126.046875 206.214844 121.464844 205.101562 C 116.933594 204 112.355469 206.742188 111.1875 211.261719 L 104.277344 238.933594 L 44.074219 238.933594 L 65.605469 98.84375 L 173.621094 206.847656 L 156.101562 224.367188 C 154.5 225.964844 153.601562 228.136719 153.601562 230.398438 L 153.601562 341.332031 L 145.066406 341.332031 C 140.355469 341.332031 136.535156 345.152344 136.535156 349.867188 L 136.535156 393.214844 C 103.921875 398.183594 81.507812 428.648438 86.476562 461.261719 C 90.894531 490.269531 115.726562 511.773438 145.066406 512 L 452.265625 512 C 485.253906 511.746094 511.792969 484.796875 511.539062 451.808594 C 511.3125 422.464844 489.808594 397.632812 460.800781 393.214844 L 460.800781 358.398438 Z M 494.933594 273.066406 L 494.933594 341.332031 L 341.332031 341.332031 L 341.332031 273.066406 Z M 79.992188 336.050781 L 17.066406 294.101562 L 17.066406 256 L 100.003906 256 Z M 65.765625 74.863281 C 62.453125 71.511719 57.050781 71.480469 53.699219 74.796875 C 52.386719 76.089844 51.53125 77.777344 51.257812 79.597656 L 26.8125 238.933594 L 17.066406 238.933594 L 17.066406 17.066406 L 56.199219 17.066406 L 209.800781 170.667969 L 185.683594 194.78125 Z M 170.667969 233.933594 L 191.71875 212.878906 L 227.898438 176.699219 L 251 153.601562 L 324.265625 153.601562 L 324.265625 341.332031 L 170.667969 341.332031 Z M 494.933594 452.265625 C 494.90625 475.816406 475.820312 494.90625 452.265625 494.933594 L 145.066406 494.933594 C 121.503906 494.933594 102.398438 475.828125 102.398438 452.265625 C 102.398438 428.703125 121.503906 409.601562 145.066406 409.601562 L 452.265625 409.601562 C 475.820312 409.628906 494.90625 428.714844 494.933594 452.265625 Z M 443.734375 392.53125 L 153.601562 392.53125 L 153.601562 358.398438 L 443.734375 358.398438 Z M 443.734375 392.53125 " style=" stroke:none;fill-rule:nonzero;fill:rgb(13.72549%,12.156863%,12.54902%);fill-opacity:1;" />
</g>
</svg>