<svg height="480pt" viewBox="0 -80 480 480" width="480pt" xmlns="http://www.w3.org/2000/svg"><path d="m144 79.957031v16l16 16v128h312v-160zm0 0" fill="#ffb531"/><path d="m448 271.957031h-440v-32h448zm0 0" fill="#d6d6d4"/><path d="m452.753906 252.957031 3.246094-13h-448v13zm0 0" fill="#ccccca"/><path d="m160 239.957031h-152v-56.449219c.003906-4.96875 1.160156-9.867187 3.375-14.3125l24.199219-48.390624c2.710937-5.421876 8.253906-8.847657 14.3125-8.847657h110.113281zm0 0" fill="#ffb531"/><path d="m128 111.957031h-78.113281c-6.058594 0-11.601563 3.425781-14.3125 8.847657l-24.199219 48.390624c-1.066406 2.15625-1.886719 4.421876-2.445312 6.761719h119.070312zm0 0" fill="#4db7e5"/><path d="m128 111.957031h-48l-40 64h88zm0 0" fill="#48add9"/><path d="m72 111.957031h16v64h-16zm0 0" fill="#419bc2"/><path d="m168 79.957031c0-14.496093 8.824219-27.527343 22.28125-32.914062l75.4375-30.175781c14.71875-5.886719 30.429688-8.910157 46.28125-8.910157s31.5625 3.023438 46.28125 8.910157l75.4375 30.175781c13.457031 5.386719 22.28125 18.417969 22.28125 32.914062zm0 0" fill="#b0564c"/><path d="m433.71875 47.042969-58.519531-23.421875c-35.230469 25.898437-74.980469 45.003906-117.214844 56.335937h198.015625c0-14.496093-8.824219-27.527343-22.28125-32.914062zm0 0" fill="#a74d43"/><path d="m288 23.957031h16v16h-16zm0 0" fill="#964138"/><path d="m320 39.957031h16v16h-16zm0 0" fill="#964138"/><path d="m240 39.957031h16v16h-16zm0 0" fill="#964138"/><path d="m368 39.957031h16v16h-16zm0 0" fill="#964138"/><g fill="#f57e00"><path d="m208 111.957031h16v80h-16zm0 0"/><path d="m256 111.957031h16v80h-16zm0 0"/><path d="m304 111.957031h16v80h-16zm0 0"/><path d="m352 111.957031h16v80h-16zm0 0"/><path d="m400 111.957031h16v80h-16zm0 0"/></g><path d="m144 111.957031h16v128h-16zm0 0" fill="#ffa912"/><path d="m137.527344 239.957031h-83.054688c-5.664062 9.640625-7.703125 20.988281-5.753906 32h94.5625c1.949219-11.011719-.089844-22.359375-5.753906-32zm0 0" fill="#ccccca"/><path d="m329.527344 239.957031h-83.054688c-5.664062 9.640625-7.703125 20.988281-5.753906 32h94.5625c1.949219-11.011719-.089844-22.359375-5.753906-32zm0 0" fill="#ccccca"/><path d="m425.527344 239.957031h-83.054688c-5.664062 9.640625-7.703125 20.988281-5.753906 32h94.5625c1.949219-11.011719-.089844-22.359375-5.753906-32zm0 0" fill="#ccccca"/><path d="m128 263.957031c0 26.507813-21.492188 48-48 48s-48-21.492187-48-48c0-26.511719 21.492188-48 48-48s48 21.488281 48 48zm0 0" fill="#3d4d63"/><path d="m96 263.957031c0 8.835938-7.164062 16-16 16s-16-7.164062-16-16c0-8.835937 7.164062-16 16-16s16 7.164063 16 16zm0 0" fill="#e0e0de"/><path d="m320 263.957031c0 26.507813-21.492188 48-48 48s-48-21.492187-48-48c0-26.511719 21.492188-48 48-48s48 21.488281 48 48zm0 0" fill="#3d4d63"/><path d="m288 263.957031c0 8.835938-7.164062 16-16 16s-16-7.164062-16-16c0-8.835937 7.164062-16 16-16s16 7.164063 16 16zm0 0" fill="#e0e0de"/><path d="m416 263.957031c0 26.507813-21.492188 48-48 48s-48-21.492187-48-48c0-26.511719 21.492188-48 48-48s48 21.488281 48 48zm0 0" fill="#3d4d63"/><path d="m384 263.957031c0 8.835938-7.164062 16-16 16s-16-7.164062-16-16c0-8.835937 7.164062-16 16-16s16 7.164063 16 16zm0 0" fill="#e0e0de"/><path d="m472 71.957031h-8.800781c-2.667969-14.628906-12.679688-26.847656-26.496094-32.34375l-75.429687-30.167969c-31.632813-12.59375-66.882813-12.59375-98.511719 0l-75.425781 30.167969c-13.832032 5.484375-23.859376 17.707031-26.535157 32.34375h-16.800781c-4.417969 0-8 3.582031-8 8v16c0 2.121094.84375 4.15625 2.34375 5.65625l2.34375 2.34375h-90.800781c-9.097657-.035156-17.421875 5.109375-21.460938 13.261719l-24.203125 48.402344c-.0625.128906-.4375.984375-.496094 1.121094-.152343.34375-.253906.628906-.398437.964843-.890625 2.046875-1.613281 4.164063-2.152344 6.328125v.496094c-.742187 2.925781-1.1367185 5.929688-1.175781 8.945312v88.480469c0 4.417969 3.582031 8 8 8h18.398438c7.148437 23.621094 28.921874 39.78125 53.601562 39.78125s46.453125-16.160156 53.601562-39.78125h84.796876c6.332031 21.265625 24.640624 36.773438 46.65625 39.523438 22.015624 2.75 43.574218-7.773438 54.945312-26.828125 11.359375 19.078125 32.9375 29.625 54.96875 26.875 22.035156-2.753906 40.351562-18.285156 46.671875-39.570313h26.359375c3.667969 0 6.867188-2.496093 7.761719-6.058593l6.484375-25.941407h9.753906c4.417969 0 8-3.582031 8-8v-160c0-4.417969-3.582031-8-8-8zm-278.742188-17.488281 75.429688-30.175781c27.8125-11.074219 58.8125-11.074219 86.625 0l75.429688 30.167969c7.75 3.070312 13.671874 9.515624 16.082031 17.496093h-269.648438c2.410157-7.976562 8.332031-14.417969 16.082031-17.488281zm-105.257812 65.488281h32v48h-32zm-45.238281 4.457031c1.34375-2.726562 4.117187-4.453124 7.160156-4.457031h22.078125v48h-51.054688zm-18.761719 139.542969h-8v-16h10.398438c-1.574219 5.1875-2.382813 10.578125-2.398438 16zm56 40c-22.089844 0-40-17.910156-40-40 0-22.09375 17.910156-40 40-40s40 17.90625 40 40c-.027344 22.078125-17.917969 39.972657-40 40zm45.886719-72c-10.441407-15.035156-27.582031-24-45.886719-24s-35.445312 8.964844-45.886719 24h-18.113281v-48h112c4.417969 0 8-3.582031 8-8v-56h16v112zm90.113281 32h-80c-.015625-5.421875-.824219-10.8125-2.398438-16h84.796876c-1.574219 5.1875-2.382813 10.578125-2.398438 16zm56 40c-22.089844 0-40-17.910156-40-40 0-22.09375 17.910156-40 40-40s40 17.90625 40 40c-.027344 22.078125-17.917969 39.972657-40 40zm96 0c-22.089844 0-40-17.910156-40-40 0-22.09375 17.910156-40 40-40s40 17.90625 40 40c-.027344 22.078125-17.917969 39.972657-40 40zm73.753906-40h-17.753906c-.015625-5.421875-.824219-10.8125-2.398438-16h24.109376zm22.246094-32h-50.113281c-10.441407-15.035156-27.582031-24-45.886719-24s-35.445312 8.964844-45.886719 24h-4.226562c-10.441407-15.035156-27.582031-24-45.886719-24s-35.445312 8.964844-45.886719 24h-58.113281v-120c-.007812-2.121093-.851562-4.152343-2.34375-5.65625l-13.65625-13.65625v-4.6875h312zm0 0"/><path d="m80 239.957031c-13.253906 0-24 10.746094-24 24 0 13.253907 10.746094 24 24 24s24-10.746093 24-24c0-13.253906-10.746094-24-24-24zm0 32c-4.417969 0-8-3.582031-8-8s3.582031-8 8-8 8 3.582031 8 8-3.582031 8-8 8zm0 0"/><path d="m272 239.957031c-13.253906 0-24 10.746094-24 24 0 13.253907 10.746094 24 24 24s24-10.746093 24-24c0-13.253906-10.746094-24-24-24zm0 32c-4.417969 0-8-3.582031-8-8s3.582031-8 8-8 8 3.582031 8 8-3.582031 8-8 8zm0 0"/><path d="m368 239.957031c-13.253906 0-24 10.746094-24 24 0 13.253907 10.746094 24 24 24s24-10.746093 24-24c0-13.253906-10.746094-24-24-24zm0 32c-4.417969 0-8-3.582031-8-8s3.582031-8 8-8 8 3.582031 8 8-3.582031 8-8 8zm0 0"/><path d="m288 23.957031h16v16h-16zm0 0"/><path d="m320 39.957031h16v16h-16zm0 0"/><path d="m240 39.957031h16v16h-16zm0 0"/><path d="m368 39.957031h16v16h-16zm0 0"/><path d="m208 111.957031h16v80h-16zm0 0"/><path d="m256 111.957031h16v80h-16zm0 0"/><path d="m304 111.957031h16v80h-16zm0 0"/><path d="m352 111.957031h16v80h-16zm0 0"/><path d="m400 111.957031h16v80h-16zm0 0"/></svg>