<svg height="512pt" viewBox="-49 0 511 512" width="512pt" xmlns="http://www.w3.org/2000/svg"><path d="m111.894531 275.886719v228.613281h164.941407v-228.613281c0-5.941407-4.8125-10.753907-10.753907-10.753907h-143.433593c-5.9375 0-10.753907 4.816407-10.753907 10.753907zm0 0" fill="#cae5ed"/><path d="m266.085938 265.132812h-22.394532c5.9375 0 10.75 4.8125 10.75 10.753907v228.613281h22.394532v-228.613281c0-5.9375-4.8125-10.753907-10.75-10.753907zm0 0" fill="#9bb8d1"/><path d="m142.03125 265.132812v-20.167968c0-4.511719 3.660156-8.167969 8.167969-8.167969h84.625c4.511719 0 8.167969 3.65625 8.167969 8.167969v20.167968zm0 0" fill="#87d1ea"/><path d="m234.824219 236.796875h-19.339844c4.511719 0 8.167969 3.65625 8.167969 8.167969v20.167968h19.339844v-20.167968c0-4.511719-3.65625-8.167969-8.167969-8.167969zm0 0" fill="#5fa6ce"/><g fill="#56a6e8"><path d="m142.03125 299.050781h34.921875v29h-34.921875zm0 0"/><path d="m142.03125 370.316406h34.921875v29h-34.921875zm0 0"/><path d="m142.03125 441.582031h34.921875v29h-34.921875zm0 0"/><path d="m211.777344 299.050781h34.921875v29h-34.921875zm0 0"/><path d="m211.777344 370.316406h34.921875v29h-34.921875zm0 0"/><path d="m211.777344 441.582031h34.921875v29h-34.921875zm0 0"/></g><path d="m8 161.210938v17.828124c0 2.207032 1.789062 4 4 4h113.050781c2.210938 0 4-1.792968 4-4v-17.828124c0-2.210938-1.789062-4-4-4h-113.050781c-2.210938 0-4 1.789062-4 4zm0 0" fill="#7d8eb0"/><path d="m125.050781 157.210938h-22.394531c2.207031 0 4 1.789062 4 4v17.828124c0 2.207032-1.792969 4-4 4h22.394531c2.210938 0 4-1.792968 4-4v-17.828124c0-2.210938-1.789062-4-4-4zm0 0" fill="#516789"/><path d="m180.941406 13.394531v222.105469h26.851563v-222.105469c0-3.253906-2.640625-5.894531-5.898438-5.894531h-15.054687c-3.257813 0-5.898438 2.640625-5.898438 5.894531zm0 0" fill="#f79374"/><path d="m200.765625 417.515625h25.050781v86.984375h-25.050781zm0 0" fill="#ea6789"/><path d="m350.15625 417.515625h25.050781v86.984375h-25.050781zm0 0" fill="#ea6789"/><path d="m200.765625 417.515625h25.050781v19.445313h-25.050781zm0 0" fill="#c7416a"/><path d="m350.15625 417.515625h25.050781v19.445313h-25.050781zm0 0" fill="#c7416a"/><path d="m169.804688 356.328125v56.613281c0 2.523438 2.046874 4.574219 4.574218 4.574219h227.214844c2.527344 0 4.574219-2.046875 4.574219-4.574219v-56.613281c0-2.523437-2.046875-4.574219-4.574219-4.574219h-227.214844c-2.527344.003906-4.574218 2.050782-4.574218 4.574219zm0 0" fill="#ffdc61"/><path d="m184.289062 351.757812 29.363282 65.757813h31.871094l-29.363282-65.757813zm0 0" fill="#516789"/><path d="m257.371094 351.757812 29.363281 65.757813h31.867187l-29.363281-65.757813zm0 0" fill="#516789"/><path d="m330.449219 351.757812 29.363281 65.757813h31.871094l-29.363282-65.757813zm0 0" fill="#516789"/><path d="m251.390625 107.34375v63.777344c0 1.648437 1.335937 2.984375 2.980469 2.984375h21.507812c1.648438 0 2.984375-1.335938 2.984375-2.984375v-63.777344c0-1.648438-1.335937-2.980469-2.984375-2.980469h-21.507812c-1.644532 0-2.980469 1.332031-2.980469 2.980469zm0 0" fill="#aabfd5"/><path d="m275.878906 150.386719h-21.507812c-1.648438 0-2.980469-1.335938-2.980469-2.984375v23.71875c0 1.648437 1.335937 2.984375 2.980469 2.984375h21.507812c1.648438 0 2.984375-1.335938 2.984375-2.984375v-23.71875c0 1.648437-1.335937 2.984375-2.984375 2.984375zm0 0" fill="#7d8eb0"/><path d="m302.109375 104.363281v2.828125c0 6.609375-5.355469 11.964844-11.964844 11.964844h-11.28125v40.15625h11.285157c6.605468 0 11.964843 5.355469 11.964843 11.964844v2.828125h63.429688c9.554687 0 17.304687 7.746093 17.304687 17.304687v5.804688c0 6.441406 5.21875 11.664062 11.660156 11.664062 6.4375 0 11.660157-5.222656 11.660157-11.664062v-49.09375c0-24.167969-19.59375-43.757813-43.761719-43.757813zm0 0" fill="#7d8eb0"/><path d="m301.363281 111.363281c-1.691406 4.550781-6.074219 7.792969-11.214843 7.792969h-11.285157v40.15625h11.285157c5.140624 0 9.523437 3.242188 11.214843 7.792969zm0 0" fill="#516789"/><path d="m321.78125 174.105469h27.988281v34.515625h-27.988281zm0 0" fill="#516789"/><path d="m353.042969 208.617188h-34.535157c-2.261718 0-4.09375 1.832031-4.09375 4.09375v103.53125c0 2.257812 1.832032 4.089843 4.09375 4.089843h34.535157c2.261719 0 4.09375-1.832031 4.09375-4.089843v-103.53125c0-2.261719-1.832031-4.09375-4.09375-4.09375zm0 0" fill="#f9aa4b"/><path d="m353.042969 208.617188h-21.359375c2.261718 0 4.09375 1.832031 4.09375 4.09375v103.53125c0 2.257812-1.832032 4.089843-4.09375 4.089843h21.359375c2.261719 0 4.09375-1.832031 4.09375-4.089843v-103.53125c0-2.261719-1.832031-4.09375-4.09375-4.09375zm0 0" fill="#c1762b"/><path d="m142.03125 291.550781c-4.140625 0-7.5 3.359375-7.5 7.5v29c0 4.140625 3.359375 7.5 7.5 7.5h34.921875c4.140625 0 7.5-3.359375 7.5-7.5v-29c0-4.140625-3.359375-7.5-7.5-7.5zm27.421875 29h-19.917969v-14h19.917969zm0 0"/><path d="m142.03125 478.082031h34.921875c4.140625 0 7.5-3.355469 7.5-7.5v-29c0-4.140625-3.359375-7.5-7.5-7.5h-34.921875c-4.140625 0-7.5 3.359375-7.5 7.5v29c0 4.144531 3.359375 7.5 7.5 7.5zm7.5-29h19.921875v14h-19.921875zm0 0"/><path d="m211.777344 291.550781c-4.140625 0-7.5 3.359375-7.5 7.5v29c0 4.140625 3.359375 7.5 7.5 7.5h34.921875c4.140625 0 7.5-3.359375 7.5-7.5v-29c0-4.140625-3.359375-7.5-7.5-7.5zm27.421875 29h-19.917969v-14h19.917969zm0 0"/><path d="m401.59375 344.257812h-117.257812v-31.457031c0-4.144531-3.359376-7.5-7.5-7.5-4.144532 0-7.5 3.355469-7.5 7.5v31.457031h-94.957032c-6.65625 0-12.074218 5.414063-12.074218 12.070313v6.492187h-20.269532c-4.144531 0-7.5 3.359376-7.5 7.5v29c0 4.140626 3.355469 7.5 7.5 7.5h20.269532v6.121094c0 6.65625 5.417968 12.074219 12.074218 12.074219h18.886719v71.984375h-73.871094v-221.113281c0-1.792969 1.460938-3.253907 3.253907-3.253907h143.4375c1.792968 0 3.25 1.460938 3.25 3.253907 0 4.140625 3.359374 7.5 7.5 7.5 4.144531 0 7.5-3.359375 7.5-7.5 0-10.066407-8.1875-18.253907-18.25-18.253907h-15.59375v-12.667968c0-8.640625-7.027344-15.667969-15.664063-15.667969h-19.535156v-155.425781h57.320312c4.144531 0 7.5-3.359375 7.5-7.5 0-4.144532-3.355469-7.5-7.5-7.5h-14.699219l-42.621093-31.890625v-13.585938c0-7.382812-6.011719-13.394531-13.398438-13.394531h-15.054687c-7.390625 0-13.398438 6.011719-13.398438 13.394531v9.84375h-41.855468c-.140626-.003906-.285157-.003906-.425782 0h-34.121094c-.140624-.003906-.285156-.003906-.425781 0h-34.121093c-1.570313-.042969-3.167969.402344-4.546876 1.382813-.878906.621094-1.582031 1.398437-2.097656 2.265625l-20.414062 31.984375h-4.230469c-4.140625 0-7.5 3.355468-7.5 7.5 0 4.140625 3.359375 7.5 7.5 7.5h8.21875.113281.066406 20.753907l-32.226563 75.839844h-16.128906c-6.339844 0-11.5 5.15625-11.5 11.5v17.828124c0 6.339844 5.160156 11.5 11.5 11.5h113.054688c6.339843 0 11.5-5.160156 11.5-11.5v-17.828124c0-6.34375-5.160157-11.5-11.5-11.5h-16.128907l-32.230469-75.839844h96.746094v22.382812c0 4.140625 3.359375 7.5 7.5 7.5 4.144532 0 7.5-3.359375 7.5-7.5v-29.691406c.003906-.0625.003906-.128906.003906-.191406 0-.066406-.003906-.128906-.003906-.195313v-35.242187c.003906-.0625.003906-.128906.003906-.195313 0-.0625-.003906-.128906-.003906-.191406v-15.546875h11.851563v15.683594.09375 197.222656h-11.851563v-101.746094c0-4.144531-3.355468-7.5-7.5-7.5-4.140625 0-7.5 3.355469-7.5 7.5v103.042969h-23.242187c-8.636719 0-15.664063 7.027344-15.664063 15.667969v12.667968h-11.886718c-10.0625 0-18.25 8.1875-18.25 18.253907v228.613281c0 4.140625 3.355468 7.5 7.5 7.5h164.9375c4.144531 0 7.5-3.359375 7.5-7.5v-56.984375c0-4.144531-3.355469-7.5-7.5-7.5-4.140626 0-7.5 3.355469-7.5 7.5v49.484375h-36.019532v-18.921875h13.386719c4.144531 0 7.5-3.355469 7.5-7.5v-29c0-4.140625-3.355469-7.5-7.5-7.5h-13.386719v-9.0625h109.339844v79.484375c0 4.140625 3.359375 7.5 7.5 7.5h25.050781c4.144531 0 7.5-3.359375 7.5-7.5v-57.984375c0-4.144531-3.355469-7.5-7.5-7.5-4.140625 0-7.5 3.355469-7.5 7.5v50.484375h-10.050781v-71.984375h43.9375c6.660156 0 12.074219-5.417969 12.074219-12.074219v-56.613281c0-6.65625-5.414063-12.070313-12.074219-12.070313zm-280.042969-168.71875h-106.050781v-10.828124h106.054688v10.828124zm-77.125-25.828124 24.101563-56.714844 24.101562 56.714844zm81.570313-90.839844-14.644532-20.632813h16.15625l14.640626 20.632813zm-34.546875 0-14.644531-20.632813h16.15625l14.640624 20.632813zm-28.835938-14.707032 10.441407 14.707032h-19.828126zm97.929688 14.707032-14.644531-20.632813h27.542968v20.632813zm72.328125 0h-17.578125v-13.15625zm-83.339844 186.09375c0-.367188.300781-.667969.667969-.667969h84.625c.367187 0 .667969.300781.667969.667969v12.667968h-85.960938zm249.136719 165.050781h-2.121094l-22.664063-50.757813h24.785157zm-75.199219 0-22.667969-50.757813h24.785157l22.667968 50.757813zm-73.082031 0-22.664063-50.757813h24.785156l22.664063 50.757813zm-100.851563-18.195313v-14h12.769532v14zm27.769532-32.5625h2.121093l22.667969 50.757813h-1.328125c-.011719 0-.023437 0-.039063 0h-23.421874zm61.898437 89.820313v14h-5.886719v-14zm-20.886719-7.71875c0 .074219-.003906.148437-.003906.21875 0 .074219.003906.148437.003906.222656v28.558594c0 .074219-.003906.148437-.003906.21875 0 .074219.003906.148437.003906.222656v26.199219h-10.050781v-71.984375h10.050781zm7.539063-31.34375c-.011719 0-.027344 0-.039063 0h-7.296875l-22.667969-50.757813h15.441407l22.667969 50.757813zm65.742187 0-22.664062-50.757813h7.667968c.078126 0 .15625.003907.234376.003907.074218 0 .152343-.003907.230468-.003907h7.308594l22.664062 50.757813zm73.082032 0-22.667969-50.757813h15.441406l22.667969 50.757813zm0 0"/><path d="m407.546875 123.8125c-1.96875-3.648438-6.519531-5.007812-10.164063-3.042969-3.644531 1.96875-5.003906 6.519531-3.039062 10.164063 2.828125 5.242187 4.324219 11.183594 4.324219 17.1875v49.09375c0 2.292968-1.867188 4.160156-4.164063 4.160156-2.292968 0-4.160156-1.867188-4.160156-4.160156v-5.808594c0-13.675781-11.125-24.800781-24.804688-24.800781h-56.496093c-2.097657-8.488281-9.773438-14.796875-18.898438-14.796875h-3.78125v-25.152344h3.78125c9.125 0 16.800781-6.308594 18.898438-14.796875h53.363281c4.363281 0 8.625.765625 12.664062 2.273437 3.882813 1.449219 8.203126-.527343 9.648438-4.40625 1.445312-3.882812-.527344-8.203124-4.40625-9.648437-5.726562-2.132813-11.75-3.214844-17.90625-3.214844h-60.296875c-4.140625 0-7.5 3.355469-7.5 7.5v2.828125c0 2.460938-2.003906 4.464844-4.464844 4.464844h-3.78125v-4.3125c0-5.777344-4.703125-10.480469-10.484375-10.480469h-21.507812c-5.78125 0-10.484375 4.703125-10.484375 10.480469v63.777344c0 5.78125 4.703125 10.484375 10.484375 10.484375h21.507812c5.78125 0 10.484375-4.703125 10.484375-10.484375v-4.308594h3.78125c2.460938 0 4.464844 2 4.464844 4.464844v2.828125c0 4.140625 3.359375 7.5 7.5 7.5h12.167969v20.3125c-4.304688 1.691406-7.363282 5.890625-7.363282 10.792969v103.53125c0 6.390624 5.199219 11.59375 11.589844 11.59375h34.535156c6.394532 0 11.59375-5.203126 11.59375-11.59375v-103.53125c0-4.902344-3.058593-9.101563-7.367187-10.792969v-20.3125h8.273437c5.40625 0 9.804688 4.398437 9.804688 9.804687v5.804688c0 10.566406 8.59375 19.164062 19.160156 19.164062s19.160156-8.597656 19.160156-19.164062v-49.09375c.003907-8.480469-2.113281-16.886719-6.117187-24.308594zm-136.183594 42.792969h-12.472656v-54.742188h12.472656zm78.273438 146.226562h-27.722657v-96.714843h27.722657zm-7.367188-111.714843h-12.988281v-19.511719h12.988281zm0 0"/></svg>